<svg xmlns="http://www.w3.org/2000/svg" width="32" height="32"><linearGradient id="gradient1" y2="1"><stop stop-color="lime"/><stop offset="0.5" stop-color="yellow"/><stop offset="1" stop-color="red"/></linearGradient><rect width="25" height="25" x="3.5" y="3.5" fill="url(#gradient1)" stroke="black" rx="0" stroke-width="0.5" ry="0"/><path d="M29 2l1 1-1 0 0 1 0-1-13 0 0 1 0-1L2 3" stroke="red" stroke-width="0.5" fill="none" stroke-linecap="round" stroke-linejoin="round"/><path d="M2 29l1 1 0-1 1 0-1 0 0-13.5 1 0-1 0L3 2" stroke="lime" stroke-width="0.5" fill="none" stroke-linecap="round" stroke-linejoin="round"/><path d="M2.5 3.5l1 0-1-1 1 0z" fill="lime"/><path d="M2.5 2.5l0 1 1-1 0 1z" fill="red"/><line x2="27.5" stroke="#646464" x1="4.5" y1="30.5" y2="30.5" stroke-linecap="round"/><line x2="18" stroke="lime" x1="4.5" y1="30.5" y2="30.5" stroke-linecap="round"/></svg>